<?xml version="1.0" encoding="UTF-8" standalone="no"?><!DOCTYPE svg PUBLIC "-//W3C//DTD SVG 1.1//EN" "http://www.w3.org/Graphics/SVG/1.1/DTD/svg11.dtd"><svg width="100%" height="100%" viewBox="0 0 585 585" version="1.1" xmlns="http://www.w3.org/2000/svg" xmlns:xlink="http://www.w3.org/1999/xlink" xml:space="preserve" xmlns:serif="http://www.serif.com/" style="fill-rule:evenodd;clip-rule:evenodd;stroke-linejoin:round;stroke-miterlimit:2;"><path d="M583.822,46.748c0.075,44.51 3.323,62.813 -11.48,66.615c-0.243,0.067 -547.091,1.897 -558.386,-1.166c-15.239,-4.129 -13.293,-23.204 -13.209,-73.647c0.033,-26.569 -5.035,-36.614 21.466,-38.359c0.848,-0.05 546.78,-0.529 549.357,0.26c9.273,2.862 10.179,3.214 11.975,12.798c0.293,1.561 0.277,30.823 0.277,33.5Zm0.025,270.822c-0.982,9.894 3.785,25.159 -19.948,25.864c-37.361,1.116 -475.802,0.025 -517.174,-0.076c-31.898,-0.076 -44.158,6.017 -45.92,-25.881c-0.093,-1.552 -0.411,-69.929 0.47,-73.026c3.147,-11.002 11.958,-13.754 20.946,-14.3c0.738,-0.042 535.501,-0.109 541.561,0.034c21.987,0.537 19.838,8.006 20.602,29.976c0.16,4.59 -0.571,4.49 -0.537,57.409Zm-19.67,266.19c-78.439,1.427 -484.261,-0.545 -533.84,0.957c-15.475,-1.427 -28.213,4.414 -29.464,-29.128c-2.702,-72.85 1.292,-76.198 6.235,-80.335c5.883,-4.918 6.974,-4.347 294.085,-4.347c266.861,0 266.97,-0.159 271.41,1.133c14.468,4.188 11.203,29.086 11.212,42.597c0.017,40.667 1.317,58.567 -4.75,64.508c-2.341,2.291 -5.622,3.306 -6.16,3.474c-4.288,1.326 -4.397,-0.201 -8.727,1.141Z"/></svg>