<?xml version="1.0" encoding="UTF-8" standalone="no"?><!DOCTYPE svg PUBLIC "-//W3C//DTD SVG 1.1//EN" "http://www.w3.org/Graphics/SVG/1.1/DTD/svg11.dtd"><svg width="100%" height="100%" viewBox="0 0 738 213" version="1.1" xmlns="http://www.w3.org/2000/svg" xmlns:xlink="http://www.w3.org/1999/xlink" xml:space="preserve" xmlns:serif="http://www.serif.com/" style="fill-rule:evenodd;clip-rule:evenodd;stroke-linejoin:round;stroke-miterlimit:2;"><g><path d="M330.178,152.875c0.246,2.385 1.26,9.809 1.699,15.57c0.374,4.925 0.801,4.865 1.103,9.786c0.181,2.964 0.226,2.946 0.64,5.886c0.484,3.44 0.103,3.467 0.686,6.89c0.743,4.362 0.374,4.392 0.893,8.8c0.797,6.773 2.118,10.746 -4.632,10.786c-14.363,0.084 -14.384,0.078 -15.567,-0.313c-2.94,-0.969 -3.3,-2.434 -8.663,-12.565c-2.598,-4.908 -3.817,-7.841 -5.104,-7.895c-1.538,-0.063 -2.587,3.061 -7.584,12.057c-3.605,6.489 -3.295,8.756 -10.031,8.744c-0.144,0 -2.211,-0.044 -8.805,-0.019c-4.162,0.013 -8.858,0.722 -8.588,-4.942c0.266,-5.58 2.344,-22.594 3.825,-37.165c0.512,-5.037 0.867,-7.362 1.665,-15.682c0.887,-9.246 0.649,-12.896 6.008,-13.093c3.521,-0.13 3.515,-0.085 44.041,-0.03c6.984,0.009 7.24,1.552 7.826,7.271c0.048,0.473 0.405,3.957 0.588,5.914Z"/><path d="M198.593,189.009c0.229,1.235 1.576,8.499 0.969,15.668c-0.457,5.391 -4.431,4.622 -10.826,4.622c-36.038,0.002 -36.121,0.157 -39.987,-1.109c-6.408,-2.097 -10.097,-5.113 -12.941,-8.31c-5.965,-6.707 -6.044,-15.299 -6.058,-16.722c-0.063,-6.744 0.015,-32.403 0.022,-35.221c0.02,-6.143 -0.827,-9.757 5.165,-9.757c19.347,-0.001 35.62,8.945 44.957,17.628c15.61,14.518 18.125,30.571 18.699,33.201Z"/><path d="M463.765,165.61c-4.298,10.399 -7.085,15.368 -14.434,23.776c-1.684,1.927 -10.502,10.457 -18.873,14.545c-2.922,1.426 -11.81,6.04 -23.621,7.342c-7.122,0.784 -9.604,0.655 -9.764,-4.644c-0.011,-0.359 -0.116,-30.001 0.058,-31.295c0.681,-5.064 6.525,-2.657 13.481,-6.209c0.266,-0.136 11.84,-4.709 16.556,-18.329c2.29,-6.615 0.209,-9.813 7.083,-9.823c2.348,-0.003 27.838,-0.039 29.348,0.046c5.13,0.289 4.053,4.882 3.593,9.817c-0.454,4.865 -2.025,10.052 -2.283,10.905c-0.094,0.309 -0.082,0.303 -1.144,3.869Z"/><path d="M556.104,166.736c-0.222,-0.404 -2.674,0.249 -4.023,2.092c-5.041,6.887 3.72,19.886 16.19,14.354c11.656,-5.171 12.775,-21.553 1.727,-30.053c-8.46,-6.51 -19.07,-4.997 -26.109,-0.172c-12.593,8.632 -14.85,25.368 -4.429,38.373c10.66,13.303 31.055,14.579 44.872,2.031c0.776,-0.705 4.795,-4.355 7.984,-10.391c2.541,-4.811 1.747,-11.628 5.338,-13.417c3.32,-1.654 7.731,-0.592 7.463,4.782c-0.324,6.514 -5.643,26.452 -28.077,35.171c-3.349,1.303 -13.509,3.593 -21.51,2.078c-11.469,-2.171 -18.488,-7.454 -24.53,-14.663c-7.547,-9.003 -7.915,-18.835 -7.982,-20.601c-0.065,-1.745 -1.966,-17.448 11.937,-29.41c6.624,-5.699 13.464,-7.276 14.757,-7.575c1.215,-0.28 15.487,-2.606 25.29,4.844c3.52,2.675 5.667,4.451 9.218,10.428c1.914,3.223 3.173,7.847 3.317,9.988c0.498,7.41 0.282,16.234 -10.246,24.726c-2.423,1.955 -8.379,5.136 -13.936,5.222c-2.515,0.039 -5.652,0.485 -12.503,-2.964c-5.619,-2.829 -13.31,-12.942 -9.93,-24.059c1.104,-3.632 7.162,-12.496 17.523,-11.477c10.035,0.986 15.481,12.463 9.498,18.994c-4.338,4.736 -10.687,2.806 -12.334,0.241c-3.066,-4.775 0.541,-7.025 0.762,-7.814c0.045,-0.162 -0.237,-0.674 -0.267,-0.728Z"/><path d="M70.535,203.694c0,6.503 0.291,8.216 -1.194,8.651c-0.922,0.27 -0.939,0.259 -57.651,0.256c-10.539,-0.001 -10.823,-0.18 -11.346,-1.28c-0.464,-0.977 -0.488,-10.925 0.11,-11.798c1.056,-1.543 1.448,-1.381 18.083,-1.374c44.101,0.019 44.099,-0.076 47.933,0.006c0.299,0.006 3.074,0.065 3.641,0.824c0.569,0.761 0.422,3.559 0.424,4.715Zm-35.086,-63.458c14.551,0 26.364,11.813 26.364,26.364c0,14.551 -11.813,26.364 -26.364,26.364c-14.55,0 -26.364,-11.813 -26.364,-26.364c0,-14.551 11.814,-26.364 26.364,-26.364Zm-0.118,14.66c-6.525,0 -11.822,5.297 -11.822,11.822c0,6.525 5.297,11.823 11.822,11.823c6.525,0 11.823,-5.298 11.823,-11.823c0,-6.525 -5.298,-11.822 -11.823,-11.822Z"/><path d="M734.965,145.983c0.009,5.304 0.396,7.485 -1.368,7.938c-0.029,0.008 -65.193,0.226 -66.539,-0.139c-1.816,-0.492 -1.584,-2.765 -1.574,-8.776c0.004,-3.166 -0.6,-4.363 2.558,-4.571c0.101,-0.006 65.156,-0.063 65.463,0.031c1.105,0.341 1.213,0.383 1.427,1.525c0.035,0.186 0.033,3.673 0.033,3.992Zm0.003,32.272c-0.117,1.179 0.451,2.998 -2.377,3.082c-4.452,0.133 -56.698,0.003 -61.628,-0.009c-3.801,-0.009 -5.262,0.717 -5.472,-3.084c-0.011,-0.185 -0.049,-8.333 0.056,-8.702c0.375,-1.311 1.425,-1.639 2.496,-1.704c0.088,-0.005 63.812,-0.013 64.534,0.004c2.62,0.064 2.364,0.954 2.455,3.572c0.019,0.547 -0.068,0.535 -0.064,6.841Zm-2.344,31.72c-9.347,0.17 -57.706,-0.065 -63.614,0.114c-1.844,-0.17 -3.362,0.526 -3.511,-3.471c-0.322,-8.681 0.154,-9.08 0.743,-9.573c0.701,-0.586 0.831,-0.518 35.044,-0.518c31.8,0 31.813,-0.019 32.342,0.135c1.724,0.499 1.335,3.466 1.336,5.076c0.002,4.846 0.157,6.979 -0.566,7.687c-0.279,0.273 -0.67,0.394 -0.734,0.414c-0.511,0.158 -0.524,-0.024 -1.04,0.136Z"/><path d="M56.177,19.098l0,-17.866l-55.599,0l-0,92.408l20.33,0l0,-37.271l30.187,0l0,-17.865l-30.187,0l0,-19.406l35.269,0Z" style="fill-rule:nonzero;"/><path d="M87.134,75.621l0,-74.389l-20.33,0l0,92.408l50.978,0l0,-18.019l-30.648,0Z" style="fill-rule:nonzero;"/><path d="M196.175,1.232l-22.64,0l-19.714,31.265l-19.713,-31.265l-22.948,0l32.497,48.977l0,43.431l20.329,0l0,-43.586l32.189,-48.822Z" style="fill-rule:nonzero;"/><rect x="204.184" y="1.232" width="20.329" height="92.408" style="fill-rule:nonzero;"/><path d="M309.683,1.232l0,61.144l-45.434,-61.144l-20.946,0l0,92.408l20.33,0l0,-61.297l45.28,61.297l20.945,0l0,-92.408l-20.175,0Z" style="fill-rule:nonzero;"/><path d="M392.234,42.97l0,15.863l25.412,0c-4.312,9.703 -13.861,16.172 -25.258,16.172c-15.556,0 -27.569,-12.013 -27.569,-27.569c0,-15.555 12.013,-27.568 27.569,-27.568c10.935,0 19.867,5.852 24.488,14.631l17.557,-9.087c-8.008,-15.093 -23.872,-25.412 -42.045,-25.412c-26.336,0 -47.436,21.254 -47.436,47.436c0,26.183 21.1,47.436 47.436,47.436c26.182,0 47.436,-21.253 47.436,-47.436l0,-4.466l-47.59,0Z" style="fill-rule:nonzero;"/><path d="M548.095,19.098l0,-17.866l-55.599,0l0,92.408l20.33,0l0,-37.271l30.187,0l0,-17.865l-30.187,0l0,-19.406l35.269,0Z" style="fill-rule:nonzero;"/><path d="M602.77,94.872c26.336,0 47.436,-21.253 47.436,-47.436c0,-26.182 -21.1,-47.436 -47.436,-47.436c-26.182,0 -47.436,21.254 -47.436,47.436c0,26.183 21.254,47.436 47.436,47.436Zm0,-19.867c-15.556,0 -27.415,-12.013 -27.415,-27.569c0,-15.555 11.859,-27.568 27.415,-27.568c15.709,0 27.568,12.013 27.568,27.568c0,15.556 -11.859,27.569 -27.568,27.569Z" style="fill-rule:nonzero;"/><path d="M737.377,93.64l-31.88,-47.744l30.186,-44.664l-23.256,0l-17.865,28.031l-17.866,-28.031l-23.256,0l30.187,44.818l-32.035,47.59l23.41,0l19.56,-30.956l19.559,30.956l23.256,0Z" style="fill-rule:nonzero;"/></g></svg>