<?xml version="1.0" encoding="UTF-8" standalone="no"?><!DOCTYPE svg PUBLIC "-//W3C//DTD SVG 1.1//EN" "http://www.w3.org/Graphics/SVG/1.1/DTD/svg11.dtd"><svg width="100%" height="100%" viewBox="0 0 593 529" version="1.1" xmlns="http://www.w3.org/2000/svg" xmlns:xlink="http://www.w3.org/1999/xlink" xml:space="preserve" xmlns:serif="http://www.serif.com/" style="fill-rule:evenodd;clip-rule:evenodd;stroke-linejoin:round;stroke-miterlimit:2;"><path d="M239.257,201.467c-1.599,-2.911 -19.266,1.794 -28.985,15.073c-36.32,49.62 26.802,143.276 116.647,103.418c83.98,-37.256 92.042,-155.286 12.443,-216.527c-60.953,-46.904 -137.397,-36.003 -188.112,-1.239c-90.73,62.192 -106.992,182.773 -31.91,276.472c76.804,95.846 223.747,105.04 323.296,14.633c5.591,-5.079 34.548,-31.377 57.524,-74.866c18.308,-34.663 12.587,-83.778 38.46,-96.667c23.92,-11.917 55.701,-4.265 53.77,34.454c-2.334,46.932 -40.657,190.583 -202.291,253.402c-24.129,9.388 -97.33,25.887 -154.976,14.972c-82.633,-15.642 -133.204,-53.705 -176.735,-105.645c-54.375,-64.865 -57.026,-135.703 -57.509,-148.427c-0.468,-12.572 -14.165,-125.71 86.004,-211.895c47.725,-41.06 97.006,-52.422 106.322,-54.577c8.754,-2.017 111.582,-18.776 182.211,34.9c25.361,19.273 40.83,32.069 66.414,75.132c13.79,23.221 22.861,56.536 23.899,71.962c3.588,53.388 2.032,116.964 -73.821,178.147c-17.458,14.085 -60.37,37.004 -100.407,37.624c-18.12,0.281 -40.722,3.494 -90.082,-21.355c-40.484,-20.383 -95.897,-93.245 -71.544,-173.341c7.954,-26.168 51.601,-90.032 126.251,-82.69c72.3,7.104 111.538,89.794 68.432,136.849c-31.255,34.122 -76.998,20.217 -88.865,1.736c-22.09,-34.403 3.898,-50.614 5.49,-56.299c0.325,-1.167 -1.708,-4.856 -1.923,-5.245Z"/></svg>