<?xml version="1.0" encoding="UTF-8" standalone="no"?><!DOCTYPE svg PUBLIC "-//W3C//DTD SVG 1.1//EN" "http://www.w3.org/Graphics/SVG/1.1/DTD/svg11.dtd"><svg width="100%" height="100%" viewBox="0 0 574 589" version="1.1" xmlns="http://www.w3.org/2000/svg" xmlns:xlink="http://www.w3.org/1999/xlink" xml:space="preserve" xmlns:serif="http://www.serif.com/" style="fill-rule:evenodd;clip-rule:evenodd;stroke-linejoin:round;stroke-miterlimit:2;"><path d="M573.245,515.73c0,52.851 2.365,66.772 -9.704,70.308c-7.493,2.194 -7.631,2.105 -468.536,2.081c-85.652,-0.008 -87.96,-1.463 -92.21,-10.403c-3.771,-7.94 -3.966,-88.789 0.894,-95.884c8.582,-12.54 11.768,-11.224 146.963,-11.167c358.414,0.154 358.397,-0.618 389.557,0.049c2.43,0.049 24.983,0.528 29.591,6.697c4.624,6.185 3.43,28.924 3.446,38.319Zm-285.148,-515.73c118.258,0 214.263,96.006 214.263,214.263c0,118.258 -96.006,214.263 -214.263,214.263c-118.249,0 -214.263,-96.006 -214.263,-214.263c0,-118.258 96.014,-214.263 214.263,-214.263Zm-0.959,119.143c-53.029,0 -96.079,43.049 -96.079,96.079c0,53.029 43.049,96.087 96.079,96.087c53.029,0 96.087,-43.057 96.087,-96.087c0,-53.029 -43.057,-96.079 -96.087,-96.079Z"/></svg>