<?xml version="1.0" encoding="UTF-8" standalone="no"?><!DOCTYPE svg PUBLIC "-//W3C//DTD SVG 1.1//EN" "http://www.w3.org/Graphics/SVG/1.1/DTD/svg11.dtd"><svg width="100%" height="100%" viewBox="0 0 577 588" version="1.1" xmlns="http://www.w3.org/2000/svg" xmlns:xlink="http://www.w3.org/1999/xlink" xml:space="preserve" xmlns:serif="http://www.serif.com/" style="fill-rule:evenodd;clip-rule:evenodd;stroke-linejoin:round;stroke-miterlimit:2;"><path d="M529.47,109.591c2.036,19.742 10.43,81.195 14.064,128.882c3.096,40.767 6.63,40.271 9.13,81.005c1.498,24.535 1.871,24.386 5.298,48.722c4.006,28.475 0.853,28.698 5.678,57.033c6.15,36.107 3.096,36.355 7.392,72.843c6.597,56.064 17.532,88.951 -38.342,89.282c-118.891,0.695 -119.065,0.646 -128.857,-2.591c-24.336,-8.021 -27.316,-20.148 -71.709,-104.008c-21.505,-40.627 -31.596,-64.905 -42.249,-65.352c-12.731,-0.521 -21.414,25.338 -62.778,99.803c-29.841,53.713 -27.275,72.479 -83.032,72.379c-1.192,0 -18.302,-0.364 -72.885,-0.157c-34.451,0.108 -73.323,5.976 -71.088,-40.908c2.202,-46.189 19.403,-187.024 31.662,-307.637c4.238,-41.694 7.177,-60.94 13.782,-129.81c7.342,-76.535 5.372,-106.748 49.732,-108.379c29.145,-1.076 29.096,-0.704 364.554,-0.248c57.811,0.075 59.93,12.847 64.78,60.187c0.397,3.915 3.352,32.755 4.867,48.954Z"/></svg>