<?xml version="1.0" encoding="UTF-8" standalone="no"?><!DOCTYPE svg PUBLIC "-//W3C//DTD SVG 1.1//EN" "http://www.w3.org/Graphics/SVG/1.1/DTD/svg11.dtd"><svg width="100%" height="100%" viewBox="0 0 586 587" version="1.1" xmlns="http://www.w3.org/2000/svg" xmlns:xlink="http://www.w3.org/1999/xlink" xml:space="preserve" xmlns:serif="http://www.serif.com/" style="fill-rule:evenodd;clip-rule:evenodd;stroke-linejoin:round;stroke-miterlimit:2;"><path d="M553.82,204.546c-35.669,86.301 -58.799,127.539 -119.788,197.317c-13.975,15.992 -87.156,86.783 -156.627,120.709c-24.25,11.834 -98.011,50.126 -196.03,60.931c-59.105,6.506 -79.704,5.436 -81.031,-38.541c-0.091,-2.979 -0.963,-248.978 0.481,-259.717c5.652,-42.026 54.151,-22.05 111.879,-51.528c2.207,-1.129 98.26,-39.08 137.398,-152.112c19.005,-54.898 1.735,-81.438 58.782,-81.521c19.486,-0.025 231.027,-0.324 243.559,0.382c42.574,2.398 33.636,40.516 29.818,81.471c-3.768,40.375 -16.805,83.421 -18.947,90.5c-0.78,2.564 -0.681,2.515 -9.494,32.109Z"/></svg>