<svg xmlns="http://www.w3.org/2000/svg" xmlns:xlink="http://www.w3.org/1999/xlink" width="763" zoomAndPan="magnify" viewBox="0 0 572.25 587.999999" height="784" preserveAspectRatio="xMidYMid meet" version="1.0"><defs><clipPath id="87dcd30ea2"><path d="M 40 27 L 489 27 L 489 535 L 40 535 Z M 40 27 " clip-rule="nonzero"/></clipPath><clipPath id="6668a243ae"><path d="M 419.953125 0.382812 L 571.101562 444.238281 L 151.355469 587.179688 L 0.203125 143.324219 Z M 419.953125 0.382812 " clip-rule="nonzero"/></clipPath><clipPath id="e5d8e5502f"><path d="M 419.953125 0.382812 L 571.101562 444.238281 L 151.355469 587.179688 L 0.203125 143.324219 Z M 419.953125 0.382812 " clip-rule="nonzero"/></clipPath></defs><g clip-path="url(#87dcd30ea2)"><g clip-path="url(#6668a243ae)"><g clip-path="url(#e5d8e5502f)"><path fill="#f9f4d4" d="M 470.527344 149.207031 L 470.800781 150.015625 C 470.878906 150.441406 470.160156 150.757812 470.238281 151.179688 C 470.398438 152.058594 470.5625 152.007812 485.152344 194.898438 C 486.792969 199.722656 486.753906 199.679688 486.8125 199.796875 C 487.132812 200.414062 487.597656 199.660156 487.921875 200.289062 L 488.199219 201.101562 C 480.074219 205.902344 461.28125 236.878906 457.257812 270.535156 C 449.25 337.519531 467.558594 439.695312 371.820312 506.160156 C 316.234375 544.746094 212.082031 549.707031 165.617188 479.175781 C 129.570312 424.460938 153.386719 356.058594 151.863281 352.765625 C 149.65625 348.007812 106.480469 356.46875 67.886719 314.183594 C 28.144531 270.644531 29.457031 199.488281 84.097656 161.183594 C 145.460938 118.171875 238.394531 162.128906 228.417969 253.277344 C 225.644531 278.613281 220.394531 286.5625 227.511719 282.210938 C 261.222656 261.597656 323.878906 178.082031 302.917969 77.808594 C 299.683594 62.335938 296.238281 55.050781 293.769531 43.351562 L 340.796875 27.335938 C 347.453125 49.484375 384.890625 146.234375 316.304688 257.332031 C 267.046875 337.128906 214.199219 339.984375 206.585938 345.601562 C 203.476562 347.902344 197.6875 379.199219 196.023438 395.753906 C 186.261719 492.964844 297.367188 504.582031 353.519531 458.347656 C 416.855469 406.199219 398.566406 319.203125 408.632812 257.351562 C 419.5 190.570312 459.132812 156.300781 470.527344 149.207031 Z M 91.09375 252.226562 C 92.53125 258.566406 102.0625 300.601562 155.53125 301.6875 C 163.214844 301.84375 165.429688 303.507812 167.628906 296.105469 C 176.535156 266.101562 194.90625 211.976562 149.296875 196.535156 C 126.984375 188.976562 85.648438 205.882812 91.09375 252.226562 Z M 91.09375 252.226562 " fill-opacity="1" fill-rule="evenodd"/><path fill="#f9f4d4" d="M 470.527344 149.207031 L 470.800781 150.015625 C 470.878906 150.441406 470.160156 150.757812 470.238281 151.179688 C 470.398438 152.058594 470.5625 152.007812 485.152344 194.898438 C 486.792969 199.722656 486.753906 199.679688 486.8125 199.796875 C 487.132812 200.414062 487.597656 199.660156 487.921875 200.289062 L 488.199219 201.101562 C 480.074219 205.902344 461.28125 236.878906 457.257812 270.535156 C 449.25 337.519531 467.558594 439.695312 371.820312 506.160156 C 316.234375 544.746094 212.082031 549.707031 165.617188 479.175781 C 129.570312 424.460938 153.386719 356.058594 151.863281 352.765625 C 149.65625 348.007812 106.480469 356.46875 67.886719 314.183594 C 28.144531 270.644531 29.457031 199.488281 84.097656 161.183594 C 145.460938 118.171875 238.394531 162.128906 228.417969 253.277344 C 225.644531 278.613281 220.394531 286.5625 227.511719 282.210938 C 261.222656 261.597656 323.878906 178.082031 302.917969 77.808594 C 299.683594 62.335938 296.238281 55.050781 293.769531 43.351562 L 340.796875 27.335938 C 347.453125 49.484375 384.890625 146.234375 316.304688 257.332031 C 267.046875 337.128906 214.199219 339.984375 206.585938 345.601562 C 203.476562 347.902344 197.6875 379.199219 196.023438 395.753906 C 186.261719 492.964844 297.367188 504.582031 353.519531 458.347656 C 416.855469 406.199219 398.566406 319.203125 408.632812 257.351562 C 419.5 190.570312 459.132812 156.300781 470.527344 149.207031 Z M 91.09375 252.226562 C 92.53125 258.566406 102.0625 300.601562 155.53125 301.6875 C 163.214844 301.84375 165.429688 303.507812 167.628906 296.105469 C 176.535156 266.101562 194.90625 211.976562 149.296875 196.535156 C 126.984375 188.976562 85.648438 205.882812 91.09375 252.226562 Z M 91.09375 252.226562 " fill-opacity="1" fill-rule="evenodd"/></g></g></g></svg>